<svg width="215" height="70" viewBox="0 0 215 70" fill="none" xmlns="http://www.w3.org/2000/svg">
<path d="M140.5 13.5H214.5" stroke="white" stroke-linecap="round"/>
<path d="M140.5 38.5H214.5" stroke="white" stroke-linecap="round"/>
<path d="M0.5 13.5H74.5" stroke="white" stroke-linecap="round"/>
<path d="M0.5 38.5H74.5" stroke="white" stroke-linecap="round"/>
<path d="M94.5527 63.7061L93.7178 66H86.6865V65.6748C88.7549 63.7881 90.2109 62.2471 91.0547 61.0518C91.8984 59.8564 92.3203 58.7637 92.3203 57.7734C92.3203 57.0176 92.0889 56.3965 91.626 55.9102C91.1631 55.4238 90.6094 55.1807 89.9648 55.1807C89.3789 55.1807 88.8516 55.3535 88.3828 55.6992C87.9199 56.0391 87.5771 56.54 87.3545 57.2021H87.0293C87.1758 56.1182 87.5508 55.2861 88.1543 54.7061C88.7637 54.126 89.5225 53.8359 90.4307 53.8359C91.3975 53.8359 92.2031 54.1465 92.8477 54.7676C93.498 55.3887 93.8232 56.1211 93.8232 56.9648C93.8232 57.5684 93.6826 58.1719 93.4014 58.7754C92.9678 59.7246 92.2646 60.7295 91.292 61.79C89.833 63.3838 88.9219 64.3447 88.5586 64.6729H91.6699C92.3027 64.6729 92.7451 64.6494 92.9971 64.6025C93.2549 64.5557 93.4863 64.4619 93.6914 64.3213C93.8965 64.1748 94.0752 63.9697 94.2275 63.7061H94.5527ZM97.7502 60.1113C97.7502 58.752 97.9553 57.583 98.3654 56.6045C98.7756 55.6201 99.3205 54.8877 99.9998 54.4072C100.528 54.0264 101.073 53.8359 101.635 53.8359C102.549 53.8359 103.37 54.3018 104.096 55.2334C105.004 56.3877 105.458 57.9521 105.458 59.9268C105.458 61.3096 105.259 62.4844 104.861 63.4512C104.462 64.418 103.953 65.1211 103.331 65.5605C102.716 65.9941 102.121 66.2109 101.547 66.2109C100.411 66.2109 99.4641 65.54 98.7082 64.1982C98.0695 63.0674 97.7502 61.7051 97.7502 60.1113ZM99.4728 60.3311C99.4728 61.9717 99.675 63.3105 100.079 64.3477C100.413 65.2207 100.912 65.6572 101.574 65.6572C101.89 65.6572 102.218 65.5166 102.558 65.2354C102.898 64.9482 103.156 64.4707 103.331 63.8027C103.601 62.7949 103.736 61.374 103.736 59.54C103.736 58.1807 103.595 57.0469 103.314 56.1387C103.103 55.4648 102.83 54.9873 102.496 54.7061C102.256 54.5127 101.966 54.416 101.626 54.416C101.228 54.416 100.873 54.5947 100.563 54.9521C100.141 55.4385 99.8537 56.2031 99.7014 57.2461C99.549 58.2891 99.4728 59.3174 99.4728 60.3311ZM116.153 63.7061L115.318 66H108.287V65.6748C110.355 63.7881 111.811 62.2471 112.655 61.0518C113.499 59.8564 113.921 58.7637 113.921 57.7734C113.921 57.0176 113.689 56.3965 113.226 55.9102C112.763 55.4238 112.21 55.1807 111.565 55.1807C110.979 55.1807 110.452 55.3535 109.983 55.6992C109.52 56.0391 109.177 56.54 108.955 57.2021H108.629C108.776 56.1182 109.151 55.2861 109.754 54.7061C110.364 54.126 111.123 53.8359 112.031 53.8359C112.998 53.8359 113.803 54.1465 114.448 54.7676C115.098 55.3887 115.423 56.1211 115.423 56.9648C115.423 57.5684 115.283 58.1719 115.002 58.7754C114.568 59.7246 113.865 60.7295 112.892 61.79C111.433 63.3838 110.522 64.3447 110.159 64.6729H113.27C113.903 64.6729 114.345 64.6494 114.597 64.6025C114.855 64.5557 115.087 64.4619 115.292 64.3213C115.497 64.1748 115.675 63.9697 115.828 63.7061H116.153ZM126.953 63.7061L126.118 66H119.087V65.6748C121.155 63.7881 122.611 62.2471 123.455 61.0518C124.299 59.8564 124.721 58.7637 124.721 57.7734C124.721 57.0176 124.489 56.3965 124.026 55.9102C123.563 55.4238 123.01 55.1807 122.365 55.1807C121.779 55.1807 121.252 55.3535 120.783 55.6992C120.32 56.0391 119.977 56.54 119.755 57.2021H119.429C119.576 56.1182 119.951 55.2861 120.554 54.7061C121.164 54.126 121.923 53.8359 122.831 53.8359C123.798 53.8359 124.603 54.1465 125.248 54.7676C125.898 55.3887 126.223 56.1211 126.223 56.9648C126.223 57.5684 126.083 58.1719 125.802 58.7754C125.368 59.7246 124.665 60.7295 123.692 61.79C122.233 63.3838 121.322 64.3447 120.959 64.6729H124.07C124.703 64.6729 125.145 64.6494 125.397 64.6025C125.655 64.5557 125.887 64.4619 126.092 64.3213C126.297 64.1748 126.475 63.9697 126.628 63.7061H126.953Z" fill="white"/>
<path d="M164.87 32H160.66V31.4199C160.795 31.4082 160.933 31.3965 161.073 31.3848C161.22 31.373 161.346 31.3496 161.451 31.3145C161.615 31.2617 161.741 31.1709 161.829 31.042C161.917 30.9072 161.961 30.7344 161.961 30.5234V25.9707L157.971 30.2861V30.4355C157.971 30.6348 158.012 30.7988 158.094 30.9277C158.176 31.0566 158.299 31.1562 158.463 31.2266C158.592 31.2852 158.727 31.3291 158.867 31.3584C159.014 31.3877 159.166 31.4082 159.324 31.4199V32H155.114V31.4199C155.249 31.4082 155.387 31.3965 155.527 31.3848C155.674 31.373 155.8 31.3496 155.905 31.3145C156.069 31.2617 156.189 31.1709 156.266 31.042C156.348 30.9072 156.389 30.7344 156.389 30.5234V24.8984C156.389 24.7051 156.348 24.5439 156.266 24.415C156.184 24.2803 156.061 24.1777 155.896 24.1074C155.744 24.0371 155.595 23.9902 155.448 23.9668C155.308 23.9434 155.176 23.9258 155.053 23.9141V23.334H159.263V23.9141C159.093 23.9258 158.943 23.9404 158.814 23.958C158.691 23.9756 158.577 23.9961 158.472 24.0195C158.308 24.0664 158.185 24.1602 158.103 24.3008C158.026 24.4355 157.988 24.6055 157.988 24.8105V29.293L161.979 24.9688C161.979 24.7109 161.938 24.5205 161.855 24.3975C161.773 24.2744 161.65 24.1777 161.486 24.1074C161.334 24.0371 161.182 23.9902 161.029 23.9668C160.883 23.9434 160.748 23.9258 160.625 23.9141V23.334H164.835V23.9141C164.665 23.9258 164.516 23.9404 164.387 23.958C164.264 23.9756 164.149 23.9961 164.044 24.0195C163.88 24.0664 163.757 24.1602 163.675 24.3008C163.599 24.4355 163.561 24.6055 163.561 24.8105V30.4355C163.561 30.6406 163.596 30.8076 163.666 30.9365C163.736 31.0596 163.856 31.1562 164.026 31.2266C164.149 31.2852 164.281 31.3291 164.422 31.3584C164.568 31.3877 164.718 31.4082 164.87 31.4199V32ZM176.718 30.418C176.899 30.0488 177.034 29.6299 177.122 29.1611C177.21 28.6865 177.254 28.165 177.254 27.5967C177.254 27.1162 177.219 26.6504 177.148 26.1992C177.078 25.7422 176.952 25.3291 176.771 24.96C176.595 24.5967 176.357 24.3066 176.059 24.0898C175.766 23.8672 175.399 23.7559 174.96 23.7559C174.485 23.7559 174.096 23.873 173.791 24.1074C173.486 24.3418 173.246 24.6406 173.07 25.0039C172.895 25.3555 172.771 25.7568 172.701 26.208C172.631 26.6592 172.596 27.1074 172.596 27.5527C172.596 28.0977 172.637 28.6162 172.719 29.1084C172.807 29.5947 172.944 30.0225 173.132 30.3916C173.319 30.7666 173.56 31.0625 173.853 31.2793C174.146 31.4902 174.515 31.5957 174.96 31.5957C175.358 31.5957 175.704 31.4902 175.997 31.2793C176.296 31.0625 176.536 30.7754 176.718 30.418ZM172.042 31.0596C171.679 30.6611 171.395 30.1895 171.189 29.6445C170.984 29.0938 170.876 28.4668 170.864 27.7637H169.027V30.4355C169.027 30.6348 169.068 30.7988 169.15 30.9277C169.232 31.0566 169.355 31.1562 169.52 31.2266C169.643 31.2852 169.774 31.3291 169.915 31.3584C170.062 31.3877 170.211 31.4082 170.363 31.4199V32H166.136V31.4199C166.271 31.4082 166.408 31.3965 166.549 31.3848C166.695 31.373 166.821 31.3496 166.927 31.3145C167.091 31.2617 167.211 31.1709 167.287 31.042C167.369 30.9072 167.41 30.7344 167.41 30.5234V24.8984C167.41 24.7051 167.369 24.5439 167.287 24.415C167.205 24.2803 167.082 24.1777 166.918 24.1074C166.766 24.0371 166.616 23.9902 166.47 23.9668C166.329 23.9434 166.197 23.9258 166.074 23.9141V23.334H170.302V23.9141C170.132 23.9258 169.982 23.9404 169.854 23.958C169.73 23.9756 169.616 23.9961 169.511 24.0195C169.347 24.0664 169.224 24.1602 169.142 24.3008C169.065 24.4355 169.027 24.6055 169.027 24.8105V27.043H170.891C171.002 25.8711 171.418 24.9189 172.139 24.1865C172.865 23.4541 173.812 23.0879 174.978 23.0879C175.628 23.0879 176.205 23.2051 176.709 23.4395C177.219 23.6738 177.644 23.9844 177.983 24.3711C178.341 24.7754 178.61 25.2471 178.792 25.7861C178.979 26.3193 179.073 26.917 179.073 27.5791C179.073 28.2002 178.979 28.8008 178.792 29.3809C178.61 29.9609 178.344 30.459 177.992 30.875C177.623 31.3086 177.184 31.6484 176.674 31.8945C176.164 32.1406 175.555 32.2637 174.846 32.2637C174.301 32.2637 173.788 32.1611 173.308 31.9561C172.827 31.7451 172.405 31.4463 172.042 31.0596ZM190.051 32H185.814V31.4199C185.949 31.4082 186.087 31.3965 186.228 31.3848C186.374 31.373 186.5 31.3496 186.605 31.3145C186.77 31.2617 186.896 31.1709 186.983 31.042C187.071 30.9072 187.115 30.7344 187.115 30.5234V27.7637H183.257V30.4355C183.257 30.6348 183.298 30.7988 183.38 30.9277C183.462 31.0566 183.585 31.1562 183.749 31.2266C183.872 31.2852 184.004 31.3291 184.145 31.3584C184.291 31.3877 184.44 31.4082 184.593 31.4199V32H180.356V31.4199C180.491 31.4082 180.629 31.3965 180.77 31.3848C180.916 31.373 181.042 31.3496 181.147 31.3145C181.312 31.2617 181.432 31.1709 181.508 31.042C181.59 30.9072 181.631 30.7344 181.631 30.5234V24.8984C181.631 24.7051 181.59 24.5439 181.508 24.415C181.426 24.2803 181.303 24.1777 181.139 24.1074C180.986 24.0371 180.837 23.9902 180.69 23.9668C180.55 23.9434 180.418 23.9258 180.295 23.9141V23.334H184.531V23.9141C184.361 23.9258 184.212 23.9404 184.083 23.958C183.96 23.9756 183.846 23.9961 183.74 24.0195C183.576 24.0664 183.453 24.1602 183.371 24.3008C183.295 24.4355 183.257 24.6055 183.257 24.8105V27.043H187.115V24.8984C187.115 24.7051 187.074 24.5439 186.992 24.415C186.91 24.2803 186.787 24.1777 186.623 24.1074C186.471 24.0371 186.321 23.9902 186.175 23.9668C186.034 23.9434 185.902 23.9258 185.779 23.9141V23.334H190.016V23.9141C189.846 23.9258 189.696 23.9404 189.567 23.958C189.444 23.9756 189.33 23.9961 189.225 24.0195C189.061 24.0664 188.938 24.1602 188.855 24.3008C188.779 24.4355 188.741 24.6055 188.741 24.8105V30.4355C188.741 30.6406 188.776 30.8076 188.847 30.9365C188.917 31.0596 189.037 31.1562 189.207 31.2266C189.33 31.2852 189.462 31.3291 189.603 31.3584C189.749 31.3877 189.898 31.4082 190.051 31.4199V32ZM196.977 27.4473V23.958H195.992C195.377 23.958 194.867 24.1016 194.463 24.3887C194.059 24.6758 193.856 25.1006 193.856 25.6631C193.856 26.2432 194.07 26.6855 194.498 26.9902C194.926 27.2949 195.535 27.4473 196.326 27.4473H196.977ZM194.322 27.8164V27.7637C193.531 27.6055 192.954 27.3447 192.591 26.9814C192.233 26.6123 192.055 26.1465 192.055 25.584C192.055 24.8926 192.365 24.3447 192.986 23.9404C193.613 23.5361 194.404 23.334 195.359 23.334H199.886V23.9141C199.716 23.9258 199.566 23.9404 199.438 23.958C199.314 23.9756 199.2 23.9961 199.095 24.0195C198.931 24.0664 198.808 24.1602 198.726 24.3008C198.649 24.4355 198.611 24.6055 198.611 24.8105V30.4355C198.611 30.6406 198.646 30.8076 198.717 30.9365C198.787 31.0596 198.907 31.1562 199.077 31.2266C199.2 31.2852 199.332 31.3291 199.473 31.3584C199.619 31.3877 199.769 31.4082 199.921 31.4199V32H195.676V31.4199C195.811 31.4082 195.948 31.3965 196.089 31.3848C196.235 31.373 196.361 31.3496 196.467 31.3145C196.631 31.2617 196.757 31.1709 196.845 31.042C196.933 30.9072 196.977 30.7344 196.977 30.5234V28.0889H196.607C196.062 28.0889 195.635 28.1943 195.324 28.4053C195.02 28.6104 194.727 29 194.445 29.5742C194.24 30.002 194.07 30.3975 193.936 30.7607C193.807 31.124 193.672 31.5371 193.531 32H190.569V31.4199C190.704 31.4023 190.83 31.3848 190.947 31.3672C191.07 31.3496 191.202 31.3291 191.343 31.3057C191.524 31.2705 191.688 31.2002 191.835 31.0947C191.987 30.9893 192.119 30.8164 192.23 30.5762C192.289 30.4414 192.368 30.2627 192.468 30.04C192.573 29.8115 192.696 29.5566 192.837 29.2754C193.024 28.9062 193.232 28.6045 193.461 28.3701C193.695 28.1357 193.982 27.9512 194.322 27.8164Z" fill="white"/>
<path d="M96.6111 36V35.076C97.2644 35.0387 97.7591 34.8893 98.0951 34.628C98.4497 34.3667 98.6924 34.0027 98.8231 33.536C98.9724 33.0693 99.0471 32.5187 99.0471 31.884L98.9631 18.668L95.6031 20.824L95.0431 20.012L100.503 15.952H101.455L101.483 32.948C101.483 33.3027 101.474 33.648 101.455 33.984C101.455 34.32 101.436 34.6187 101.399 34.88C101.791 34.8613 102.183 34.8427 102.575 34.824C102.967 34.8053 103.359 34.7867 103.751 34.768V36H96.6111ZM112.466 36.448C111.813 36.448 111.132 36.364 110.422 36.196C109.713 36.0467 109.05 35.7947 108.434 35.44C107.837 35.0853 107.342 34.6093 106.95 34.012C106.577 33.4147 106.39 32.6773 106.39 31.8C106.39 30.96 106.596 30.1947 107.006 29.504C107.417 28.7947 107.94 28.16 108.574 27.6C109.228 27.0213 109.918 26.508 110.646 26.06C109.228 25.2013 108.229 24.352 107.65 23.512C107.072 22.6533 106.782 21.8227 106.782 21.02C106.782 20.1427 106.95 19.3867 107.286 18.752C107.641 18.0987 108.108 17.5667 108.686 17.156C109.265 16.7453 109.9 16.4467 110.59 16.26C111.3 16.0547 112.009 15.952 112.718 15.952C113.67 15.952 114.557 16.1293 115.378 16.484C116.218 16.82 116.89 17.324 117.394 17.996C117.917 18.668 118.178 19.4893 118.178 20.46C118.178 21.188 118.001 21.86 117.646 22.476C117.31 23.092 116.853 23.6427 116.274 24.128C115.714 24.5947 115.089 25.0053 114.398 25.36C115.238 25.8453 116.013 26.4053 116.722 27.04C117.432 27.656 118.001 28.328 118.43 29.056C118.86 29.784 119.074 30.5493 119.074 31.352C119.074 32.528 118.766 33.4987 118.15 34.264C117.534 35.0107 116.722 35.5613 115.714 35.916C114.706 36.2707 113.624 36.448 112.466 36.448ZM112.522 35.328C113.736 35.3467 114.669 35.048 115.322 34.432C115.994 33.816 116.33 32.9667 116.33 31.884C116.33 30.9133 115.985 29.9707 115.294 29.056C114.622 28.1227 113.428 27.292 111.71 26.564C110.684 27.3107 109.937 28.1133 109.47 28.972C109.022 29.8307 108.78 30.6053 108.742 31.296C108.668 32.4907 108.976 33.4613 109.666 34.208C110.376 34.936 111.328 35.3093 112.522 35.328ZM113.418 24.8C114.24 24.24 114.865 23.6053 115.294 22.896C115.742 22.1867 115.976 21.4867 115.994 20.796C116.032 19.5827 115.752 18.6587 115.154 18.024C114.557 17.3893 113.764 17.0627 112.774 17.044C112.046 17.0253 111.43 17.184 110.926 17.52C110.422 17.8373 110.04 18.2573 109.778 18.78C109.517 19.284 109.386 19.8253 109.386 20.404C109.386 21.4307 109.769 22.3267 110.534 23.092C111.318 23.8387 112.28 24.408 113.418 24.8Z" fill="white"/>
<path d="M9.7627 32.2285C8.50879 32.2285 7.52734 31.8125 6.81836 30.9805C6.10938 30.1484 5.75488 29.0322 5.75488 27.6318C5.75488 27.0225 5.84863 26.4541 6.03613 25.9268C6.22949 25.3936 6.50781 24.9102 6.87109 24.4766C7.2168 24.0605 7.65039 23.7266 8.17188 23.4746C8.69336 23.2168 9.26172 23.0879 9.87695 23.0879C10.7266 23.0879 11.418 23.293 11.9512 23.7031C12.4844 24.1074 12.751 24.6611 12.751 25.3643C12.751 25.6572 12.6807 25.918 12.54 26.1465C12.3994 26.3691 12.168 26.4805 11.8457 26.4805C11.5 26.4805 11.2305 26.3926 11.0371 26.2168C10.8496 26.041 10.7559 25.8447 10.7559 25.6279C10.7559 25.3643 10.791 25.0947 10.8613 24.8193C10.9316 24.5381 10.9727 24.333 10.9844 24.2041C10.8789 24.0225 10.7207 23.9023 10.5098 23.8438C10.3047 23.7793 10.082 23.7471 9.8418 23.7471C9.56055 23.7471 9.29102 23.8086 9.0332 23.9316C8.78125 24.0488 8.53516 24.2686 8.29492 24.5908C8.07812 24.8838 7.90234 25.2793 7.76758 25.7773C7.63281 26.2754 7.56543 26.8701 7.56543 27.5615C7.56543 28.6514 7.80566 29.542 8.28613 30.2334C8.77246 30.9189 9.4082 31.2617 10.1934 31.2617C10.7617 31.2617 11.2363 31.124 11.6172 30.8486C12.0039 30.5732 12.3613 30.1602 12.6895 29.6094L13.252 29.9785C12.8652 30.6699 12.3555 31.2178 11.7227 31.6221C11.0898 32.0264 10.4365 32.2285 9.7627 32.2285ZM13.2695 34.8301C13.2695 34.5371 13.3486 34.2969 13.5068 34.1094C13.6709 33.9277 13.873 33.8369 14.1133 33.8369C14.3008 33.8369 14.4619 33.8721 14.5967 33.9424C14.7314 34.0127 14.8516 34.1035 14.957 34.2148C15.0449 34.3027 15.1387 34.4229 15.2383 34.5752C15.3379 34.7275 15.417 34.8535 15.4756 34.9531C15.7686 34.7949 16.1172 34.3818 16.5215 33.7139C16.9316 33.0459 17.2275 32.46 17.4092 31.9561C16.8525 30.5674 16.3486 29.3252 15.8975 28.2295C15.4463 27.1338 14.9746 26 14.4824 24.8281C14.3711 24.5586 14.1836 24.3506 13.9199 24.2041C13.6562 24.0518 13.3926 23.9551 13.1289 23.9141V23.334H17.084V23.9492C16.9082 23.9551 16.6973 23.9932 16.4512 24.0635C16.2051 24.1279 16.082 24.2041 16.082 24.292C16.082 24.3271 16.0938 24.3857 16.1172 24.4678C16.1465 24.5498 16.1787 24.6348 16.2139 24.7227C16.4365 25.3027 16.7764 26.1406 17.2334 27.2363C17.6904 28.3262 18.0449 29.1992 18.2969 29.8555C18.5605 29.2285 18.833 28.5811 19.1143 27.9131C19.4014 27.2393 19.7207 26.4453 20.0723 25.5312C20.1133 25.4199 20.1719 25.2676 20.248 25.0742C20.3242 24.875 20.3623 24.7051 20.3623 24.5645C20.3623 24.4121 20.2275 24.2715 19.958 24.1426C19.6943 24.0078 19.4424 23.9258 19.2021 23.8965V23.334H22.4189V23.8789C22.2432 23.9082 22.0117 24.0107 21.7246 24.1865C21.4375 24.3564 21.2236 24.5996 21.083 24.916C20.3857 26.5332 19.7646 28.0068 19.2197 29.3369C18.6807 30.667 18.2705 31.6455 17.9893 32.2725C17.6201 33.0928 17.2891 33.7314 16.9961 34.1885C16.709 34.6514 16.4277 35.0146 16.1523 35.2783C15.8828 35.5244 15.6367 35.6885 15.4141 35.7705C15.1973 35.8584 14.9717 35.9023 14.7373 35.9023C14.2803 35.9023 13.9199 35.7939 13.6562 35.5771C13.3984 35.3604 13.2695 35.1113 13.2695 34.8301ZM28.8525 30.4092C29.0576 30.0107 29.207 29.5859 29.3008 29.1348C29.3945 28.6836 29.4414 28.165 29.4414 27.5791C29.4414 27.1104 29.4033 26.6504 29.3271 26.1992C29.251 25.7422 29.1221 25.335 28.9404 24.9775C28.7529 24.6143 28.5127 24.3301 28.2197 24.125C27.9326 23.9141 27.5605 23.8086 27.1035 23.8086C26.6289 23.8086 26.2334 23.9229 25.917 24.1514C25.6006 24.3799 25.3428 24.6758 25.1436 25.0391C24.9561 25.3965 24.8213 25.8037 24.7393 26.2607C24.6572 26.7119 24.6162 27.1514 24.6162 27.5791C24.6162 28.2588 24.6631 28.833 24.7568 29.3018C24.8564 29.7705 24.9971 30.1689 25.1787 30.4971C25.3721 30.8545 25.6182 31.127 25.917 31.3145C26.2158 31.502 26.5879 31.5957 27.0332 31.5957C27.4375 31.5957 27.792 31.4902 28.0967 31.2793C28.4072 31.0625 28.6592 30.7725 28.8525 30.4092ZM23.7109 25.5752L23.7812 25.5928C24.0625 24.8896 24.4932 24.3066 25.0732 23.8438C25.6592 23.375 26.3447 23.1406 27.1299 23.1406C27.7861 23.1406 28.375 23.252 28.8965 23.4746C29.418 23.6914 29.8545 23.999 30.2061 24.3975C30.5518 24.7842 30.8125 25.25 30.9883 25.7949C31.1699 26.3398 31.2607 26.9316 31.2607 27.5703C31.2607 28.1973 31.1641 28.8008 30.9707 29.3809C30.7773 29.9609 30.4961 30.459 30.127 30.875C29.7402 31.3145 29.2861 31.6572 28.7646 31.9033C28.2432 32.1436 27.625 32.2637 26.9102 32.2637C26.3711 32.2637 25.8496 32.1553 25.3457 31.9385C24.8477 31.7217 24.4141 31.3936 24.0449 30.9541C23.6641 30.5088 23.3623 29.9316 23.1396 29.2227C22.9229 28.5137 22.8145 27.6816 22.8145 26.7266C22.8145 25.8066 22.876 24.9922 22.999 24.2832C23.1279 23.5684 23.2891 22.9121 23.4824 22.3145C23.7461 21.4883 24.165 20.8203 24.7393 20.3105C25.3135 19.7949 26.0195 19.5137 26.8574 19.4668C27.2734 19.4434 27.7129 19.4199 28.1758 19.3965C28.6445 19.373 29.0107 19.3496 29.2744 19.3262C29.5146 19.3086 29.752 19.2412 29.9863 19.124C30.2207 19.001 30.4551 18.79 30.6895 18.4912L31.1904 18.8516C31.0615 19.0273 30.8857 19.2559 30.6631 19.5371C30.4463 19.8184 30.2559 20.0439 30.0918 20.2139C29.957 20.3604 29.8428 20.4805 29.749 20.5742C29.6553 20.668 29.5645 20.7354 29.4766 20.7764C29.3828 20.8291 29.2686 20.8672 29.1338 20.8906C28.999 20.9141 28.8232 20.9316 28.6064 20.9434C28.3545 20.9551 28.0469 20.9756 27.6836 21.0049C27.3262 21.0342 27.0156 21.0518 26.752 21.0576C26.3477 21.0752 25.999 21.1689 25.7061 21.3389C25.4131 21.5029 25.1611 21.7021 24.9502 21.9365C24.7393 22.1709 24.5693 22.4316 24.4404 22.7188C24.3115 23.0059 24.2119 23.2578 24.1416 23.4746C24.0303 23.8438 23.9365 24.2012 23.8604 24.5469C23.79 24.8867 23.7402 25.2295 23.7109 25.5752ZM38.5908 30.4092C38.7959 30.0107 38.9453 29.5859 39.0391 29.1348C39.1328 28.6836 39.1797 28.165 39.1797 27.5791C39.1797 27.1104 39.1416 26.6504 39.0654 26.1992C38.9893 25.7422 38.8604 25.335 38.6787 24.9775C38.4912 24.6143 38.251 24.3301 37.958 24.125C37.6709 23.9141 37.2988 23.8086 36.8418 23.8086C36.3672 23.8086 35.9717 23.9229 35.6553 24.1514C35.3389 24.3799 35.0811 24.6758 34.8818 25.0391C34.6943 25.3965 34.5596 25.8037 34.4775 26.2607C34.3955 26.7119 34.3545 27.1514 34.3545 27.5791C34.3545 28.2588 34.4014 28.833 34.4951 29.3018C34.5947 29.7705 34.7354 30.1689 34.917 30.4971C35.1104 30.8545 35.3564 31.127 35.6553 31.3145C35.9541 31.502 36.3262 31.5957 36.7715 31.5957C37.1758 31.5957 37.5303 31.4902 37.835 31.2793C38.1455 31.0625 38.3975 30.7725 38.5908 30.4092ZM33.4492 25.5752L33.5195 25.5928C33.8008 24.8896 34.2314 24.3066 34.8115 23.8438C35.3975 23.375 36.083 23.1406 36.8682 23.1406C37.5244 23.1406 38.1133 23.252 38.6348 23.4746C39.1562 23.6914 39.5928 23.999 39.9443 24.3975C40.29 24.7842 40.5508 25.25 40.7266 25.7949C40.9082 26.3398 40.999 26.9316 40.999 27.5703C40.999 28.1973 40.9023 28.8008 40.709 29.3809C40.5156 29.9609 40.2344 30.459 39.8652 30.875C39.4785 31.3145 39.0244 31.6572 38.5029 31.9033C37.9814 32.1436 37.3633 32.2637 36.6484 32.2637C36.1094 32.2637 35.5879 32.1553 35.084 31.9385C34.5859 31.7217 34.1523 31.3936 33.7832 30.9541C33.4023 30.5088 33.1006 29.9316 32.8779 29.2227C32.6611 28.5137 32.5527 27.6816 32.5527 26.7266C32.5527 25.8066 32.6143 24.9922 32.7373 24.2832C32.8662 23.5684 33.0273 22.9121 33.2207 22.3145C33.4844 21.4883 33.9033 20.8203 34.4775 20.3105C35.0518 19.7949 35.7578 19.5137 36.5957 19.4668C37.0117 19.4434 37.4512 19.4199 37.9141 19.3965C38.3828 19.373 38.749 19.3496 39.0127 19.3262C39.2529 19.3086 39.4902 19.2412 39.7246 19.124C39.959 19.001 40.1934 18.79 40.4277 18.4912L40.9287 18.8516C40.7998 19.0273 40.624 19.2559 40.4014 19.5371C40.1846 19.8184 39.9941 20.0439 39.8301 20.2139C39.6953 20.3604 39.5811 20.4805 39.4873 20.5742C39.3936 20.668 39.3027 20.7354 39.2148 20.7764C39.1211 20.8291 39.0068 20.8672 38.8721 20.8906C38.7373 20.9141 38.5615 20.9316 38.3447 20.9434C38.0928 20.9551 37.7852 20.9756 37.4219 21.0049C37.0645 21.0342 36.7539 21.0518 36.4902 21.0576C36.0859 21.0752 35.7373 21.1689 35.4443 21.3389C35.1514 21.5029 34.8994 21.7021 34.6885 21.9365C34.4775 22.1709 34.3076 22.4316 34.1787 22.7188C34.0498 23.0059 33.9502 23.2578 33.8799 23.4746C33.7686 23.8438 33.6748 24.2012 33.5986 24.5469C33.5283 24.8867 33.4785 25.2295 33.4492 25.5752ZM50.7109 27.5791C50.7109 28.1885 50.6143 28.7891 50.4209 29.3809C50.2275 29.9668 49.9521 30.4648 49.5947 30.875C49.1904 31.3438 48.7217 31.6924 48.1885 31.9209C47.6553 32.1494 47.0576 32.2637 46.3955 32.2637C45.8447 32.2637 45.3203 32.1611 44.8223 31.9561C44.3242 31.7451 43.8818 31.4404 43.4951 31.042C43.1143 30.6494 42.8096 30.1719 42.5811 29.6094C42.3584 29.041 42.2471 28.4053 42.2471 27.7021C42.2471 26.3486 42.6396 25.2412 43.4248 24.3799C44.2158 23.5186 45.25 23.0879 46.5273 23.0879C47.7402 23.0879 48.7393 23.498 49.5244 24.3184C50.3154 25.1328 50.7109 26.2197 50.7109 27.5791ZM48.8916 27.5967C48.8916 27.1572 48.8477 26.6943 48.7598 26.208C48.6719 25.7158 48.54 25.2998 48.3643 24.96C48.1768 24.5967 47.9307 24.3066 47.626 24.0898C47.3213 23.8672 46.9492 23.7559 46.5098 23.7559C46.0586 23.7559 45.6719 23.8672 45.3496 24.0898C45.0332 24.3125 44.7754 24.6172 44.5762 25.0039C44.3887 25.3613 44.2568 25.7686 44.1807 26.2256C44.1045 26.6826 44.0664 27.125 44.0664 27.5527C44.0664 28.1152 44.1104 28.6367 44.1982 29.1172C44.292 29.5918 44.4385 30.0166 44.6377 30.3916C44.8369 30.7666 45.0859 31.0625 45.3848 31.2793C45.6895 31.4902 46.0645 31.5957 46.5098 31.5957C47.2422 31.5957 47.8223 31.2412 48.25 30.5322C48.6777 29.8232 48.8916 28.8447 48.8916 27.5967ZM59.6143 26.1113H59.0781C59.0254 25.9473 58.9463 25.7539 58.8408 25.5312C58.7412 25.3086 58.6299 25.0977 58.5068 24.8984C58.3779 24.6816 58.2314 24.4912 58.0674 24.3271C57.9092 24.1572 57.7422 24.0605 57.5664 24.0371C57.3848 24.0195 57.1826 24.0078 56.96 24.002C56.7373 23.9902 56.5469 23.9844 56.3887 23.9844V30.4355C56.3887 30.6348 56.4297 30.7988 56.5117 30.9277C56.5938 31.0566 56.7168 31.1562 56.8809 31.2266C57.0098 31.2852 57.1562 31.3291 57.3203 31.3584C57.4844 31.3877 57.6455 31.4082 57.8037 31.4199V32H53.3916V31.4199C53.5264 31.4082 53.6787 31.3965 53.8486 31.3848C54.0244 31.373 54.165 31.3496 54.2705 31.3145C54.4346 31.2617 54.5547 31.1709 54.6309 31.042C54.7129 30.9072 54.7539 30.7344 54.7539 30.5234V23.9844C54.5664 23.9902 54.3555 23.999 54.1211 24.0107C53.8867 24.0166 53.7021 24.0254 53.5674 24.0371C53.415 24.0488 53.251 24.1455 53.0752 24.3271C52.9053 24.5088 52.7559 24.6992 52.627 24.8984C52.5039 25.0977 52.3896 25.3203 52.2842 25.5664C52.1787 25.8066 52.1055 25.9883 52.0645 26.1113H51.5283V23.334H59.6143V26.1113ZM68.6494 31.8418C68.374 31.9414 68.1309 32.0205 67.9199 32.0791C67.7148 32.1436 67.4805 32.1758 67.2168 32.1758C66.7598 32.1758 66.3936 32.0703 66.1182 31.8594C65.8486 31.6426 65.6758 31.3291 65.5996 30.9189H65.5469C65.166 31.3408 64.7559 31.6631 64.3164 31.8857C63.8828 32.1084 63.3584 32.2197 62.7432 32.2197C62.0928 32.2197 61.5566 32.0205 61.1348 31.6221C60.7188 31.2236 60.5107 30.7021 60.5107 30.0576C60.5107 29.7236 60.5576 29.4248 60.6514 29.1611C60.7451 28.8975 60.8857 28.6602 61.0732 28.4492C61.2197 28.2734 61.4131 28.1182 61.6533 27.9834C61.8936 27.8428 62.1191 27.7314 62.3301 27.6494C62.5938 27.5498 63.127 27.3652 63.9297 27.0957C64.7383 26.8262 65.2832 26.6152 65.5645 26.4629V25.5928C65.5645 25.5166 65.5469 25.3701 65.5117 25.1533C65.4824 24.9365 65.415 24.7314 65.3096 24.5381C65.1924 24.3213 65.0254 24.1338 64.8086 23.9756C64.5977 23.8115 64.2959 23.7295 63.9033 23.7295C63.6338 23.7295 63.3818 23.7764 63.1475 23.8701C62.9189 23.958 62.7578 24.0518 62.6641 24.1514C62.6641 24.2686 62.6904 24.4414 62.7432 24.6699C62.8018 24.8984 62.8311 25.1094 62.8311 25.3027C62.8311 25.5078 62.7373 25.6953 62.5498 25.8652C62.3682 26.0352 62.1133 26.1201 61.7852 26.1201C61.4922 26.1201 61.2754 26.0176 61.1348 25.8125C61 25.6016 60.9326 25.3672 60.9326 25.1094C60.9326 24.8398 61.0264 24.582 61.2139 24.3359C61.4072 24.0898 61.6562 23.8701 61.9609 23.6768C62.2246 23.5127 62.5439 23.375 62.9189 23.2637C63.2939 23.1465 63.6602 23.0879 64.0176 23.0879C64.5098 23.0879 64.9375 23.123 65.3008 23.1934C65.6699 23.2578 66.0039 23.4014 66.3027 23.624C66.6016 23.8408 66.8271 24.1367 66.9795 24.5117C67.1377 24.8809 67.2168 25.3584 67.2168 25.9443C67.2168 26.7822 67.208 27.5264 67.1904 28.1768C67.1729 28.8213 67.1641 29.5273 67.1641 30.2949C67.1641 30.5234 67.2021 30.7051 67.2783 30.8398C67.3604 30.9746 67.4834 31.0889 67.6475 31.1826C67.7354 31.2354 67.873 31.2646 68.0605 31.2705C68.2539 31.2764 68.4502 31.2793 68.6494 31.2793V31.8418ZM65.582 27.2012C65.084 27.3477 64.6475 27.4912 64.2725 27.6318C63.8975 27.7725 63.5488 27.9482 63.2266 28.1592C62.9336 28.3584 62.7021 28.5957 62.5322 28.8711C62.3623 29.1406 62.2773 29.4629 62.2773 29.8379C62.2773 30.3242 62.4033 30.6816 62.6553 30.9102C62.9131 31.1387 63.2383 31.2529 63.6309 31.2529C64.0469 31.2529 64.4131 31.1533 64.7295 30.9541C65.0459 30.749 65.3125 30.5088 65.5293 30.2334L65.582 27.2012Z" fill="white"/>
</svg>
