<svg width="233" height="234" viewBox="0 0 233 234" fill="none" xmlns="http://www.w3.org/2000/svg">
<g clip-path="url(#clip0_403_58)">
<path d="M10.5111 45.922V55H8.40313V47.724H3.93213V55H1.80713V45.922H10.5111ZM13.3784 45.922H15.5034V49.611H20.0764V45.922H22.2014V55H20.0764V51.413H15.5034V55H13.3784V45.922Z" fill="#4A535C"/>
<path d="M14.93 101.879C15.712 101.879 16.4033 102.026 17.004 102.321C17.616 102.616 18.092 103.035 18.432 103.579C18.772 104.112 18.942 104.735 18.942 105.449C18.942 106.174 18.7663 106.815 18.415 107.37C18.0637 107.925 17.5763 108.356 16.953 108.662C16.341 108.957 15.6497 109.104 14.879 109.104C13.3037 109.104 12.0967 108.588 11.258 107.557C10.4193 106.514 10 105.047 10 103.154C10 101.828 10.2267 100.706 10.68 99.788C11.1333 98.87 11.768 98.179 12.584 97.714C13.4 97.238 14.352 97 15.44 97C16.6187 97 17.5593 97.215 18.262 97.646L17.769 98.632C17.2023 98.258 16.4317 98.071 15.457 98.071C14.1423 98.071 13.111 98.49 12.363 99.329C11.615 100.156 11.241 101.363 11.241 102.95C11.241 103.233 11.258 103.556 11.292 103.919C11.5867 103.273 12.057 102.774 12.703 102.423C13.349 102.06 14.0913 101.879 14.93 101.879ZM14.828 108.067C15.6893 108.067 16.3863 107.835 16.919 107.37C17.463 106.894 17.735 106.265 17.735 105.483C17.735 104.701 17.463 104.078 16.919 103.613C16.3863 103.148 15.661 102.916 14.743 102.916C14.1423 102.916 13.6097 103.029 13.145 103.256C12.6917 103.483 12.3347 103.794 12.074 104.191C11.8133 104.588 11.683 105.03 11.683 105.517C11.683 105.97 11.802 106.39 12.04 106.775C12.2893 107.16 12.652 107.472 13.128 107.71C13.604 107.948 14.1707 108.067 14.828 108.067Z" fill="#4A535C"/>
<path d="M11.029 125V136.9H9.805V126.088H7V125H11.029ZM17.9195 130.1C19.1662 130.168 20.1125 130.508 20.7585 131.12C21.4159 131.721 21.7445 132.508 21.7445 133.483C21.7445 134.163 21.5802 134.769 21.2515 135.302C20.9229 135.823 20.4355 136.237 19.7895 136.543C19.1435 136.849 18.3559 137.002 17.4265 137.002C16.5652 137.002 15.7492 136.866 14.9785 136.594C14.2192 136.311 13.6072 135.937 13.1426 135.472L13.7375 134.503C14.1342 134.911 14.6612 135.245 15.3185 135.506C15.9759 135.755 16.6785 135.88 17.4265 135.88C18.4012 135.88 19.1549 135.67 19.6875 135.251C20.2202 134.82 20.4865 134.231 20.4865 133.483C20.4865 132.746 20.2202 132.168 19.6875 131.749C19.1549 131.33 18.3502 131.12 17.2735 131.12H16.4235V130.219L19.7215 126.088H13.6356V125H21.2855V125.867L17.9195 130.1Z" fill="#4A535C"/>
<path d="M14.704 168.914V170.002H6.357V169.135L11.304 164.29C11.9273 163.678 12.3467 163.151 12.562 162.709C12.7887 162.256 12.902 161.802 12.902 161.349C12.902 160.646 12.6583 160.102 12.171 159.717C11.695 159.32 11.0093 159.122 10.114 159.122C8.72 159.122 7.63767 159.564 6.867 160.448L6 159.7C6.46467 159.156 7.054 158.737 7.768 158.442C8.49333 158.147 9.30933 158 10.216 158C11.4287 158 12.3863 158.289 13.089 158.867C13.803 159.434 14.16 160.216 14.16 161.213C14.16 161.825 14.024 162.414 13.752 162.981C13.48 163.548 12.9643 164.199 12.205 164.936L8.159 168.914H14.704ZM20.9167 170.104C19.9987 170.104 19.1771 169.86 18.4517 169.373C17.7377 168.886 17.1767 168.189 16.7687 167.282C16.3721 166.364 16.1737 165.287 16.1737 164.052C16.1737 162.817 16.3721 161.746 16.7687 160.839C17.1767 159.921 17.7377 159.218 18.4517 158.731C19.1771 158.244 19.9987 158 20.9167 158C21.8347 158 22.6507 158.244 23.3647 158.731C24.0901 159.218 24.6567 159.921 25.0647 160.839C25.4727 161.746 25.6767 162.817 25.6767 164.052C25.6767 165.287 25.4727 166.364 25.0647 167.282C24.6567 168.189 24.0901 168.886 23.3647 169.373C22.6507 169.86 21.8347 170.104 20.9167 170.104ZM20.9167 168.982C21.6081 168.982 22.2144 168.789 22.7357 168.404C23.2684 168.019 23.6821 167.458 23.9767 166.721C24.2714 165.984 24.4187 165.095 24.4187 164.052C24.4187 163.009 24.2714 162.12 23.9767 161.383C23.6821 160.646 23.2684 160.085 22.7357 159.7C22.2144 159.315 21.6081 159.122 20.9167 159.122C20.2254 159.122 19.6134 159.315 19.0807 159.7C18.5594 160.085 18.1514 160.646 17.8567 161.383C17.5621 162.12 17.4147 163.009 17.4147 164.052C17.4147 165.095 17.5621 165.984 17.8567 166.721C18.1514 167.458 18.5594 168.019 19.0807 168.404C19.6134 168.789 20.2254 168.982 20.9167 168.982Z" fill="#4A535C"/>
<path d="M13.704 195.914V197.002H5.357V196.135L10.304 191.29C10.9273 190.678 11.3467 190.151 11.562 189.709C11.7887 189.256 11.902 188.802 11.902 188.349C11.902 187.646 11.6583 187.102 11.171 186.717C10.695 186.32 10.0093 186.122 9.114 186.122C7.72 186.122 6.63766 186.564 5.867 187.448L5 186.7C5.46466 186.156 6.054 185.737 6.768 185.442C7.49333 185.147 8.30933 185 9.216 185C10.4287 185 11.3863 185.289 12.089 185.867C12.803 186.434 13.16 187.216 13.16 188.213C13.16 188.825 13.024 189.414 12.752 189.981C12.48 190.548 11.9643 191.199 11.205 191.936L7.159 195.914H13.704ZM23.5717 185.102V185.969L18.5907 197.002H17.2647L22.1607 186.19H16.0407V188.417H14.8337V185.102H23.5717Z" fill="#4A535C"/>
<path d="M44.3783 50.274C45.5003 50.614 46.0613 51.3393 46.0613 52.45C46.0613 53.266 45.7553 53.895 45.1433 54.337C44.5313 54.779 43.6246 55 42.4233 55H37.7993V45.922H42.2363C43.347 45.922 44.214 46.126 44.8373 46.534C45.4606 46.942 45.7723 47.52 45.7723 48.268C45.7723 48.7327 45.6476 49.135 45.3983 49.475C45.1603 49.815 44.8203 50.0813 44.3783 50.274ZM39.8223 49.713H42.0493C43.1486 49.713 43.6983 49.3333 43.6983 48.574C43.6983 47.8373 43.1486 47.469 42.0493 47.469H39.8223V49.713ZM42.2533 53.453C43.4206 53.453 44.0043 53.0733 44.0043 52.314C44.0043 51.9173 43.8683 51.6227 43.5963 51.43C43.3243 51.226 42.8993 51.124 42.3213 51.124H39.8223V53.453H42.2533ZM55.5157 47.724H52.3367V55H50.2117V47.724H47.0157V45.922H55.5157V47.724Z" fill="#4A535C"/>
<path d="M53.738 97V97.867L48.757 108.9H47.431L52.327 98.088H46.207V100.315H45V97H53.738Z" fill="#4A535C"/>
<path d="M46.2072 125V136.9H44.9832V126.088H42.1782V125H46.2072ZM59.1668 133.772H56.7868V136.9H55.5628V133.772H48.8478V132.888L55.1548 125H56.5148L50.4288 132.684H55.5968V129.93H56.7868V132.684H59.1668V133.772Z" fill="#4A535C"/>
<path d="M52.704 168.914V170.002H44.357V169.135L49.304 164.29C49.9273 163.678 50.3466 163.151 50.562 162.709C50.7886 162.256 50.902 161.802 50.902 161.349C50.902 160.646 50.6583 160.102 50.171 159.717C49.695 159.32 49.0093 159.122 48.114 159.122C46.72 159.122 45.6376 159.564 44.867 160.448L44 159.7C44.4646 159.156 45.054 158.737 45.768 158.442C46.4933 158.147 47.3093 158 48.216 158C49.4286 158 50.3863 158.289 51.089 158.867C51.803 159.434 52.16 160.216 52.16 161.213C52.16 161.825 52.024 162.414 51.752 162.981C51.48 163.548 50.9643 164.199 50.205 164.936L46.159 168.914H52.704ZM57.5381 158.102V170.002H56.3141V159.19H53.5091V158.102H57.5381Z" fill="#4A535C"/>
<path d="M48.7558 195.914V197.002H40.4088V196.135L45.3558 191.29C45.9792 190.678 46.3985 190.151 46.6138 189.709C46.8405 189.256 46.9538 188.802 46.9538 188.349C46.9538 187.646 46.7102 187.102 46.2228 186.717C45.7468 186.32 45.0612 186.122 44.1658 186.122C42.7718 186.122 41.6895 186.564 40.9188 187.448L40.0518 186.7C40.5165 186.156 41.1058 185.737 41.8198 185.442C42.5452 185.147 43.3612 185 44.2678 185C45.4805 185 46.4382 185.289 47.1408 185.867C47.8548 186.434 48.2118 187.216 48.2118 188.213C48.2118 188.825 48.0758 189.414 47.8038 189.981C47.5318 190.548 47.0162 191.199 46.2568 191.936L42.2108 195.914H48.7558ZM57.1089 190.763C57.8569 191.012 58.4293 191.386 58.8259 191.885C59.2339 192.384 59.4379 192.984 59.4379 193.687C59.4379 194.378 59.2509 194.985 58.8769 195.506C58.5029 196.016 57.9646 196.413 57.2619 196.696C56.5706 196.968 55.7546 197.104 54.8139 197.104C53.3859 197.104 52.2639 196.798 51.4479 196.186C50.6319 195.574 50.2239 194.741 50.2239 193.687C50.2239 192.973 50.4166 192.372 50.8019 191.885C51.1986 191.386 51.7709 191.012 52.5189 190.763C51.9069 190.525 51.4423 190.185 51.1249 189.743C50.8076 189.29 50.6489 188.757 50.6489 188.145C50.6489 187.182 51.0229 186.417 51.7709 185.85C52.5303 185.283 53.5446 185 54.8139 185C55.6526 185 56.3836 185.13 57.0069 185.391C57.6416 185.64 58.1346 186.003 58.4859 186.479C58.8373 186.955 59.0129 187.51 59.0129 188.145C59.0129 188.757 58.8486 189.29 58.5199 189.743C58.1913 190.185 57.7209 190.525 57.1089 190.763ZM51.8729 188.179C51.8729 188.836 52.1336 189.358 52.6549 189.743C53.1763 190.128 53.8959 190.321 54.8139 190.321C55.7319 190.321 56.4516 190.128 56.9729 189.743C57.5056 189.358 57.7719 188.842 57.7719 188.196C57.7719 187.527 57.4999 187 56.9559 186.615C56.4233 186.23 55.7093 186.037 54.8139 186.037C53.9073 186.037 53.1876 186.23 52.6549 186.615C52.1336 187 51.8729 187.522 51.8729 188.179ZM54.8139 196.067C55.8679 196.067 56.6896 195.852 57.2789 195.421C57.8796 194.99 58.1799 194.407 58.1799 193.67C58.1799 192.933 57.8796 192.355 57.2789 191.936C56.6896 191.505 55.8679 191.29 54.8139 191.29C53.7713 191.29 52.9496 191.505 52.3489 191.936C51.7596 192.355 51.4649 192.933 51.4649 193.67C51.4649 194.418 51.7596 195.007 52.3489 195.438C52.9383 195.857 53.7599 196.067 54.8139 196.067Z" fill="#4A535C"/>
<path d="M76.7431 55.1189C75.8024 55.1189 74.9581 54.9206 74.2101 54.5239C73.4621 54.1272 72.8784 53.5776 72.4591 52.8749C72.0397 52.1609 71.8301 51.3562 71.8301 50.4609C71.8301 49.5656 72.0397 48.7666 72.4591 48.0639C72.8784 47.3612 73.4564 46.8116 74.1931 46.4149C74.9411 46.0182 75.7911 45.8199 76.7431 45.8199C77.6384 45.8199 78.4204 46.0012 79.0891 46.3639C79.7691 46.7266 80.2791 47.2479 80.6191 47.9279L78.9871 48.8799C78.7264 48.4606 78.3977 48.1489 78.0011 47.9449C77.6157 47.7296 77.1907 47.6219 76.7261 47.6219C75.9327 47.6219 75.2754 47.8826 74.7541 48.4039C74.2327 48.9139 73.9721 49.5996 73.9721 50.4609C73.9721 51.3222 74.2271 52.0136 74.7371 52.5349C75.2584 53.0449 75.9214 53.2999 76.7261 53.2999C77.1907 53.2999 77.6157 53.1979 78.0011 52.9939C78.3977 52.7786 78.7264 52.4612 78.9871 52.0419L80.6191 52.9939C80.2677 53.6739 79.7521 54.2009 79.0721 54.5749C78.4034 54.9376 77.6271 55.1189 76.7431 55.1189ZM87.522 45.8199C88.406 45.8199 89.1937 46.0126 89.885 46.3979C90.5877 46.7832 91.1373 47.3272 91.534 48.0299C91.9307 48.7326 92.129 49.5429 92.129 50.4609C92.129 51.3789 91.9307 52.1949 91.534 52.9089C91.1373 53.6116 90.5877 54.1556 89.885 54.5409C89.1937 54.9262 88.406 55.1189 87.522 55.1189C86.298 55.1189 85.329 54.7109 84.615 53.8949V58.2979H82.49V45.9219H84.513V47.1119C84.8643 46.6812 85.295 46.3582 85.805 46.1429C86.3263 45.9276 86.8987 45.8199 87.522 45.8199ZM87.284 53.2999C88.066 53.2999 88.7063 53.0392 89.205 52.5179C89.715 51.9966 89.97 51.3109 89.97 50.4609C89.97 49.6109 89.715 48.9252 89.205 48.4039C88.7063 47.8826 88.066 47.6219 87.284 47.6219C86.774 47.6219 86.315 47.7409 85.907 47.9789C85.499 48.2056 85.176 48.5342 84.938 48.9649C84.7 49.3956 84.581 49.8942 84.581 50.4609C84.581 51.0276 84.7 51.5262 84.938 51.9569C85.176 52.3876 85.499 52.7219 85.907 52.9599C86.315 53.1866 86.774 53.2999 87.284 53.2999Z" fill="#4A535C"/>
<path d="M83.029 70.1019V82.0019H81.805V71.1899H79V70.1019H83.029Z" fill="#4A535C"/>
<path d="M183.868 98.002V109.902H182.644V99.09H179.839V98.002H183.868Z" fill="#4A535C"/>
<path d="M190.868 98.002V109.902H189.644V99.09H186.839V98.002H190.868Z" fill="#4A535C"/>
<path d="M83.3635 102.763C84.1115 103.012 84.6838 103.386 85.0805 103.885C85.4885 104.384 85.6925 104.984 85.6925 105.687C85.6925 106.378 85.5055 106.985 85.1315 107.506C84.7575 108.016 84.2192 108.413 83.5165 108.696C82.8252 108.968 82.0092 109.104 81.0685 109.104C79.6405 109.104 78.5185 108.798 77.7025 108.186C76.8865 107.574 76.4785 106.741 76.4785 105.687C76.4785 104.973 76.6712 104.372 77.0565 103.885C77.4532 103.386 78.0255 103.012 78.7735 102.763C78.1615 102.525 77.6968 102.185 77.3795 101.743C77.0622 101.29 76.9035 100.757 76.9035 100.145C76.9035 99.182 77.2775 98.417 78.0255 97.85C78.7848 97.283 79.7992 97 81.0685 97C81.9072 97 82.6382 97.13 83.2615 97.391C83.8962 97.64 84.3892 98.003 84.7405 98.479C85.0918 98.955 85.2675 99.51 85.2675 100.145C85.2675 100.757 85.1032 101.29 84.7745 101.743C84.4458 102.185 83.9755 102.525 83.3635 102.763ZM78.1275 100.179C78.1275 100.836 78.3882 101.358 78.9095 101.743C79.4308 102.128 80.1505 102.321 81.0685 102.321C81.9865 102.321 82.7062 102.128 83.2275 101.743C83.7602 101.358 84.0265 100.842 84.0265 100.196C84.0265 99.527 83.7545 99 83.2105 98.615C82.6778 98.23 81.9638 98.037 81.0685 98.037C80.1618 98.037 79.4422 98.23 78.9095 98.615C78.3882 99 78.1275 99.522 78.1275 100.179ZM81.0685 108.067C82.1225 108.067 82.9442 107.852 83.5335 107.421C84.1342 106.99 84.4345 106.407 84.4345 105.67C84.4345 104.933 84.1342 104.355 83.5335 103.936C82.9442 103.505 82.1225 103.29 81.0685 103.29C80.0258 103.29 79.2042 103.505 78.6035 103.936C78.0142 104.355 77.7195 104.933 77.7195 105.67C77.7195 106.418 78.0142 107.007 78.6035 107.438C79.1928 107.857 80.0145 108.067 81.0685 108.067Z" fill="#4A535C"/>
<path d="M78.1335 125.102V137.002H76.9095V126.19H74.1045V125.102H78.1335ZM84.106 129.981C85.8287 129.981 87.081 130.293 87.863 130.916C88.6564 131.528 89.053 132.389 89.053 133.5C89.053 134.191 88.8887 134.809 88.56 135.353C88.2427 135.897 87.761 136.328 87.115 136.645C86.469 136.951 85.6757 137.104 84.735 137.104C83.885 137.104 83.0747 136.968 82.304 136.696C81.5447 136.413 80.9327 136.039 80.468 135.574L81.063 134.605C81.4597 135.013 81.981 135.347 82.627 135.608C83.273 135.857 83.97 135.982 84.718 135.982C85.704 135.982 86.4634 135.761 86.996 135.319C87.54 134.877 87.812 134.288 87.812 133.551C87.812 132.735 87.506 132.117 86.894 131.698C86.2934 131.279 85.2734 131.069 83.834 131.069H81.301L81.913 125.102H88.424V126.19H82.984L82.576 129.981H84.106Z" fill="#4A535C"/>
<path d="M81.598 168.914V170.002H73.251V169.135L78.198 164.29C78.8213 163.678 79.2407 163.151 79.456 162.709C79.6827 162.256 79.796 161.802 79.796 161.349C79.796 160.646 79.5523 160.102 79.065 159.717C78.589 159.32 77.9033 159.122 77.008 159.122C75.614 159.122 74.5317 159.564 73.761 160.448L72.894 159.7C73.3587 159.156 73.948 158.737 74.662 158.442C75.3873 158.147 76.2033 158 77.11 158C78.3227 158 79.2803 158.289 79.983 158.867C80.697 159.434 81.054 160.216 81.054 161.213C81.054 161.825 80.918 162.414 80.646 162.981C80.374 163.548 79.8583 164.199 79.099 164.936L75.053 168.914H81.598ZM91.2601 168.914V170.002H82.9131V169.135L87.8601 164.29C88.4834 163.678 88.9028 163.151 89.1181 162.709C89.3448 162.256 89.4581 161.802 89.4581 161.349C89.4581 160.646 89.2144 160.102 88.7271 159.717C88.2511 159.32 87.5654 159.122 86.6701 159.122C85.2761 159.122 84.1938 159.564 83.4231 160.448L82.5561 159.7C83.0208 159.156 83.6101 158.737 84.3241 158.442C85.0494 158.147 85.8654 158 86.7721 158C87.9848 158 88.9424 158.289 89.6451 158.867C90.3591 159.434 90.7161 160.216 90.7161 161.213C90.7161 161.825 90.5801 162.414 90.3081 162.981C90.0361 163.548 89.5204 164.199 88.7611 164.936L84.7151 168.914H91.2601Z" fill="black"/>
<path d="M81.7201 195.914V197.002H73.3731V196.135L78.3201 191.29C78.9434 190.678 79.3627 190.151 79.5781 189.709C79.8047 189.256 79.9181 188.802 79.9181 188.349C79.9181 187.646 79.6744 187.102 79.1871 186.717C78.7111 186.32 78.0254 186.122 77.1301 186.122C75.7361 186.122 74.6537 186.564 73.8831 187.448L73.0161 186.7C73.4807 186.156 74.0701 185.737 74.7841 185.442C75.5094 185.147 76.3254 185 77.2321 185C78.4447 185 79.4024 185.289 80.1051 185.867C80.8191 186.434 81.1761 187.216 81.1761 188.213C81.1761 188.825 81.0401 189.414 80.7681 189.981C80.4961 190.548 79.9804 191.199 79.2211 191.936L75.1751 195.914H81.7201ZM86.9622 185C88.5375 185 89.7445 185.521 90.5832 186.564C91.4218 187.595 91.8412 189.057 91.8412 190.95C91.8412 192.276 91.6145 193.398 91.1612 194.316C90.7078 195.234 90.0732 195.931 89.2572 196.407C88.4412 196.872 87.4892 197.104 86.4012 197.104C85.2225 197.104 84.2818 196.889 83.5792 196.458L84.0722 195.472C84.6388 195.846 85.4095 196.033 86.3842 196.033C87.6988 196.033 88.7302 195.619 89.4782 194.792C90.2262 193.953 90.6002 192.741 90.6002 191.154C90.6002 190.859 90.5832 190.536 90.5492 190.185C90.2545 190.831 89.7842 191.335 89.1382 191.698C88.4922 192.049 87.7498 192.225 86.9112 192.225C86.1292 192.225 85.4322 192.078 84.8202 191.783C84.2195 191.488 83.7492 191.075 83.4092 190.542C83.0692 189.998 82.8992 189.369 82.8992 188.655C82.8992 187.93 83.0748 187.289 83.4262 186.734C83.7775 186.179 84.2592 185.754 84.8712 185.459C85.4945 185.153 86.1915 185 86.9622 185ZM87.0982 191.188C87.6988 191.188 88.2258 191.075 88.6792 190.848C89.1438 190.621 89.5065 190.31 89.7672 189.913C90.0278 189.516 90.1582 189.074 90.1582 188.587C90.1582 188.134 90.0335 187.714 89.7842 187.329C89.5462 186.944 89.1892 186.632 88.7132 186.394C88.2372 186.156 87.6705 186.037 87.0132 186.037C86.1518 186.037 85.4492 186.275 84.9052 186.751C84.3725 187.216 84.1062 187.839 84.1062 188.621C84.1062 189.403 84.3725 190.026 84.9052 190.491C85.4492 190.956 86.1802 191.188 87.0982 191.188Z" fill="#4A535C"/>
<path d="M115.483 45.922V55H113.358V51.481C112.486 51.9003 111.573 52.11 110.621 52.11C109.454 52.11 108.559 51.8437 107.935 51.311C107.312 50.767 107 49.9397 107 48.829V45.922H109.125V48.693C109.125 49.271 109.295 49.7017 109.635 49.985C109.975 50.2683 110.457 50.41 111.08 50.41C111.874 50.41 112.633 50.24 113.358 49.9V45.922H115.483ZM125.532 47.724H122.353V55H120.228V47.724H117.032V45.922H125.532V47.724Z" fill="#4A535C"/>
<path d="M120.598 80.914V82.002H112.251V81.135L117.198 76.29C117.821 75.678 118.241 75.151 118.456 74.709C118.683 74.2557 118.796 73.8023 118.796 73.349C118.796 72.6463 118.552 72.1023 118.065 71.717C117.589 71.3203 116.903 71.122 116.008 71.122C114.614 71.122 113.532 71.564 112.761 72.448L111.894 71.7C112.359 71.156 112.948 70.7367 113.662 70.442C114.387 70.1473 115.203 70 116.11 70C117.323 70 118.28 70.289 118.983 70.867C119.697 71.4337 120.054 72.2157 120.054 73.213C120.054 73.825 119.918 74.4143 119.646 74.981C119.374 75.5477 118.858 76.1993 118.099 76.936L114.053 80.914H120.598Z" fill="#4A535C"/>
<path d="M115.493 97C117.069 97 118.276 97.521 119.114 98.564C119.953 99.595 120.372 101.057 120.372 102.95C120.372 104.276 120.146 105.398 119.692 106.316C119.239 107.234 118.604 107.931 117.788 108.407C116.972 108.872 116.02 109.104 114.932 109.104C113.754 109.104 112.813 108.889 112.11 108.458L112.603 107.472C113.17 107.846 113.941 108.033 114.915 108.033C116.23 108.033 117.261 107.619 118.009 106.792C118.757 105.953 119.131 104.741 119.131 103.154C119.131 102.859 119.114 102.536 119.08 102.185C118.786 102.831 118.315 103.335 117.669 103.698C117.023 104.049 116.281 104.225 115.442 104.225C114.66 104.225 113.963 104.078 113.351 103.783C112.751 103.488 112.28 103.075 111.94 102.542C111.6 101.998 111.43 101.369 111.43 100.655C111.43 99.93 111.606 99.289 111.957 98.734C112.309 98.179 112.79 97.754 113.402 97.459C114.026 97.153 114.723 97 115.493 97ZM115.629 103.188C116.23 103.188 116.757 103.075 117.21 102.848C117.675 102.621 118.038 102.31 118.298 101.913C118.559 101.516 118.689 101.074 118.689 100.587C118.689 100.134 118.565 99.714 118.315 99.329C118.077 98.944 117.72 98.632 117.244 98.394C116.768 98.156 116.202 98.037 115.544 98.037C114.683 98.037 113.98 98.275 113.436 98.751C112.904 99.216 112.637 99.839 112.637 100.621C112.637 101.403 112.904 102.026 113.436 102.491C113.98 102.956 114.711 103.188 115.629 103.188Z" fill="#4A535C"/>
<path d="M113.268 125.102V137.002H112.044V126.19H109.239V125.102H113.268ZM121.043 129.879C121.825 129.879 122.516 130.026 123.117 130.321C123.729 130.616 124.205 131.035 124.545 131.579C124.885 132.112 125.055 132.735 125.055 133.449C125.055 134.174 124.879 134.815 124.528 135.37C124.176 135.925 123.689 136.356 123.066 136.662C122.454 136.957 121.762 137.104 120.992 137.104C119.416 137.104 118.209 136.588 117.371 135.557C116.532 134.514 116.113 133.047 116.113 131.154C116.113 129.828 116.339 128.706 116.793 127.788C117.246 126.87 117.881 126.179 118.697 125.714C119.513 125.238 120.465 125 121.553 125C122.731 125 123.672 125.215 124.375 125.646L123.882 126.632C123.315 126.258 122.544 126.071 121.57 126.071C120.255 126.071 119.224 126.49 118.476 127.329C117.728 128.156 117.354 129.363 117.354 130.95C117.354 131.233 117.371 131.556 117.405 131.919C117.699 131.273 118.17 130.774 118.816 130.423C119.462 130.06 120.204 129.879 121.043 129.879ZM120.941 136.067C121.802 136.067 122.499 135.835 123.032 135.37C123.576 134.894 123.848 134.265 123.848 133.483C123.848 132.701 123.576 132.078 123.032 131.613C122.499 131.148 121.774 130.916 120.856 130.916C120.255 130.916 119.722 131.029 119.258 131.256C118.804 131.483 118.447 131.794 118.187 132.191C117.926 132.588 117.796 133.03 117.796 133.517C117.796 133.97 117.915 134.39 118.153 134.775C118.402 135.16 118.765 135.472 119.241 135.71C119.717 135.948 120.283 136.067 120.941 136.067Z" fill="#4A535C"/>
<path d="M116.631 168.914V170.002H108.284V169.135L113.231 164.29C113.854 163.678 114.274 163.151 114.489 162.709C114.716 162.256 114.829 161.802 114.829 161.349C114.829 160.646 114.585 160.102 114.098 159.717C113.622 159.32 112.936 159.122 112.041 159.122C110.647 159.122 109.565 159.564 108.794 160.448L107.927 159.7C108.392 159.156 108.981 158.737 109.695 158.442C110.42 158.147 111.236 158 112.143 158C113.356 158 114.313 158.289 115.016 158.867C115.73 159.434 116.087 160.216 116.087 161.213C116.087 161.825 115.951 162.414 115.679 162.981C115.407 163.548 114.891 164.199 114.132 164.936L110.086 168.914H116.631ZM122.213 163.202C123.46 163.27 124.406 163.61 125.052 164.222C125.71 164.823 126.038 165.61 126.038 166.585C126.038 167.265 125.874 167.871 125.545 168.404C125.217 168.925 124.729 169.339 124.083 169.645C123.437 169.951 122.65 170.104 121.72 170.104C120.859 170.104 120.043 169.968 119.272 169.696C118.513 169.413 117.901 169.039 117.436 168.574L118.031 167.605C118.428 168.013 118.955 168.347 119.612 168.608C120.27 168.857 120.972 168.982 121.72 168.982C122.695 168.982 123.449 168.772 123.981 168.353C124.514 167.922 124.78 167.333 124.78 166.585C124.78 165.848 124.514 165.27 123.981 164.851C123.449 164.432 122.644 164.222 121.567 164.222H120.717V163.321L124.015 159.19H117.929V158.102H125.579V158.969L122.213 163.202Z" fill="#4A535C"/>
<path d="M111.793 190.202C113.04 190.27 113.986 190.61 114.632 191.222C115.29 191.823 115.618 192.61 115.618 193.585C115.618 194.265 115.454 194.871 115.125 195.404C114.797 195.925 114.309 196.339 113.663 196.645C113.017 196.951 112.23 197.104 111.3 197.104C110.439 197.104 109.623 196.968 108.852 196.696C108.093 196.413 107.481 196.039 107.016 195.574L107.611 194.605C108.008 195.013 108.535 195.347 109.192 195.608C109.85 195.857 110.552 195.982 111.3 195.982C112.275 195.982 113.029 195.772 113.561 195.353C114.094 194.922 114.36 194.333 114.36 193.585C114.36 192.848 114.094 192.27 113.561 191.851C113.029 191.432 112.224 191.222 111.147 191.222H110.297V190.321L113.595 186.19H107.509V185.102H115.159V185.969L111.793 190.202ZM122.086 197.104C121.168 197.104 120.346 196.86 119.621 196.373C118.907 195.886 118.346 195.189 117.938 194.282C117.541 193.364 117.343 192.287 117.343 191.052C117.343 189.817 117.541 188.746 117.938 187.839C118.346 186.921 118.907 186.218 119.621 185.731C120.346 185.244 121.168 185 122.086 185C123.004 185 123.82 185.244 124.534 185.731C125.259 186.218 125.826 186.921 126.234 187.839C126.642 188.746 126.846 189.817 126.846 191.052C126.846 192.287 126.642 193.364 126.234 194.282C125.826 195.189 125.259 195.886 124.534 196.373C123.82 196.86 123.004 197.104 122.086 197.104ZM122.086 195.982C122.777 195.982 123.384 195.789 123.905 195.404C124.438 195.019 124.851 194.458 125.146 193.721C125.441 192.984 125.588 192.095 125.588 191.052C125.588 190.009 125.441 189.12 125.146 188.383C124.851 187.646 124.438 187.085 123.905 186.7C123.384 186.315 122.777 186.122 122.086 186.122C121.395 186.122 120.783 186.315 120.25 186.7C119.729 187.085 119.321 187.646 119.026 188.383C118.731 189.12 118.584 190.009 118.584 191.052C118.584 192.095 118.731 192.984 119.026 193.721C119.321 194.458 119.729 195.019 120.25 195.404C120.783 195.789 121.395 195.982 122.086 195.982Z" fill="#4A535C"/>
<path d="M150.48 45.922V55H148.372V47.724H143.901V55H141.776V45.922H150.48ZM160.538 47.724H157.359V55H155.234V47.724H152.038V45.922H160.538V47.724Z" fill="#4A535C"/>
<path d="M149.55 75.2019C150.797 75.2699 151.743 75.6099 152.389 76.2219C153.046 76.8226 153.375 77.6102 153.375 78.5849C153.375 79.2649 153.211 79.8712 152.882 80.4039C152.553 80.9252 152.066 81.3389 151.42 81.6449C150.774 81.9509 149.986 82.1039 149.057 82.1039C148.196 82.1039 147.38 81.9679 146.609 81.6959C145.85 81.4126 145.238 81.0386 144.773 80.5739L145.368 79.6049C145.765 80.0129 146.292 80.3472 146.949 80.6079C147.606 80.8572 148.309 80.9819 149.057 80.9819C150.032 80.9819 150.785 80.7722 151.318 80.3529C151.851 79.9222 152.117 79.3329 152.117 78.5849C152.117 77.8482 151.851 77.2702 151.318 76.8509C150.785 76.4316 149.981 76.2219 148.904 76.2219H148.054V75.3209L151.352 71.1899H145.266V70.1019H152.916V70.9689L149.55 75.2019Z" fill="#4A535C"/>
<path d="M144.066 97.102V109.002H142.842V98.19H140.037V97.102H144.066ZM151.653 109.104C150.735 109.104 149.914 108.86 149.188 108.373C148.474 107.886 147.913 107.189 147.505 106.282C147.109 105.364 146.91 104.287 146.91 103.052C146.91 101.817 147.109 100.746 147.505 99.839C147.913 98.921 148.474 98.218 149.188 97.731C149.914 97.244 150.735 97 151.653 97C152.571 97 153.387 97.244 154.101 97.731C154.827 98.218 155.393 98.921 155.801 99.839C156.209 100.746 156.413 101.817 156.413 103.052C156.413 104.287 156.209 105.364 155.801 106.282C155.393 107.189 154.827 107.886 154.101 108.373C153.387 108.86 152.571 109.104 151.653 109.104ZM151.653 107.982C152.345 107.982 152.951 107.789 153.472 107.404C154.005 107.019 154.419 106.458 154.713 105.721C155.008 104.984 155.155 104.095 155.155 103.052C155.155 102.009 155.008 101.12 154.713 100.383C154.419 99.646 154.005 99.085 153.472 98.7C152.951 98.315 152.345 98.122 151.653 98.122C150.962 98.122 150.35 98.315 149.817 98.7C149.296 99.085 148.888 99.646 148.593 100.383C148.299 101.12 148.151 102.009 148.151 103.052C148.151 104.095 148.299 104.984 148.593 105.721C148.888 106.458 149.296 107.019 149.817 107.404C150.35 107.789 150.962 107.982 151.653 107.982Z" fill="#4A535C"/>
<path d="M144.066 109.002V97.1021H140.037V98.1901H142.842V109.002H144.066Z" fill="#4A535C"/>
<path d="M146.443 125.102V137.002H145.219V126.19H142.414V125.102H146.443ZM157.686 125.102V125.969L152.705 137.002H151.379L156.275 126.19H150.155V128.417H148.948V125.102H157.686Z" fill="#4A535C"/>
<path d="M149.509 168.914V170.002H141.162V169.135L146.109 164.29C146.732 163.678 147.151 163.151 147.367 162.709C147.593 162.256 147.707 161.802 147.707 161.349C147.707 160.646 147.463 160.102 146.976 159.717C146.5 159.32 145.814 159.122 144.919 159.122C143.525 159.122 142.442 159.564 141.672 160.448L140.805 159.7C141.269 159.156 141.859 158.737 142.573 158.442C143.298 158.147 144.114 158 145.021 158C146.233 158 147.191 158.289 147.894 158.867C148.608 159.434 148.965 160.216 148.965 161.213C148.965 161.825 148.829 162.414 148.557 162.981C148.285 163.548 147.769 164.199 147.01 164.936L142.964 168.914H149.509ZM160.761 166.874H158.381V170.002H157.157V166.874H150.442V165.99L156.749 158.102H158.109L152.023 165.786H157.191V163.032H158.381V165.786H160.761V166.874Z" fill="#4A535C"/>
<path d="M178.992 55.119C178.051 55.119 177.207 54.9207 176.459 54.524C175.711 54.1273 175.127 53.5777 174.708 52.875C174.289 52.161 174.079 51.3563 174.079 50.461C174.079 49.5657 174.289 48.7667 174.708 48.064C175.127 47.3613 175.705 46.8117 176.442 46.415C177.19 46.0183 178.04 45.82 178.992 45.82C179.887 45.82 180.669 46.0013 181.338 46.364C182.018 46.7267 182.528 47.248 182.868 47.928L181.236 48.88C180.975 48.4607 180.647 48.149 180.25 47.945C179.865 47.7297 179.44 47.622 178.975 47.622C178.182 47.622 177.524 47.8827 177.003 48.404C176.482 48.914 176.221 49.5997 176.221 50.461C176.221 51.3223 176.476 52.0137 176.986 52.535C177.507 53.045 178.17 53.3 178.975 53.3C179.44 53.3 179.865 53.198 180.25 52.994C180.647 52.7787 180.975 52.4613 181.236 52.042L182.868 52.994C182.517 53.674 182.001 54.201 181.321 54.575C180.652 54.9377 179.876 55.119 178.992 55.119ZM189.569 46.364C190.43 46.364 191.19 46.551 191.847 46.925C192.504 47.2877 193.014 47.7977 193.377 48.455C193.751 49.1123 193.938 49.866 193.938 50.716C193.938 51.5887 193.734 52.365 193.326 53.045C192.918 53.7137 192.346 54.235 191.609 54.609C190.872 54.983 190.034 55.17 189.093 55.17C187.518 55.17 186.299 54.6487 185.438 53.606C184.577 52.5633 184.146 51.0617 184.146 49.101C184.146 47.2763 184.537 45.8313 185.319 44.766C186.101 43.7007 187.297 42.998 188.906 42.658L193.122 41.757L193.428 43.661L189.603 44.443C188.504 44.6697 187.682 45.055 187.138 45.599C186.594 46.143 186.277 46.908 186.186 47.894C186.594 47.4067 187.087 47.0327 187.665 46.772C188.243 46.5 188.878 46.364 189.569 46.364ZM189.144 53.453C189.926 53.453 190.555 53.2037 191.031 52.705C191.518 52.195 191.762 51.549 191.762 50.767C191.762 49.985 191.518 49.356 191.031 48.88C190.555 48.404 189.926 48.166 189.144 48.166C188.351 48.166 187.71 48.404 187.223 48.88C186.736 49.356 186.492 49.985 186.492 50.767C186.492 51.5603 186.736 52.2063 187.223 52.705C187.722 53.2037 188.362 53.453 189.144 53.453Z" fill="#4A535C"/>
<path d="M191.319 78.772H188.939V81.9H187.715V78.772H181V77.888L187.307 70H188.667L182.581 77.684H187.749V74.93H188.939V77.684H191.319V78.772Z" fill="#4A535C"/>
<path d="M182.029 125.102V137.002H180.805V126.19H178V125.102H182.029ZM191.691 130.763C192.439 131.012 193.011 131.386 193.408 131.885C193.816 132.384 194.02 132.984 194.02 133.687C194.02 134.378 193.833 134.985 193.459 135.506C193.085 136.016 192.547 136.413 191.844 136.696C191.153 136.968 190.337 137.104 189.396 137.104C187.968 137.104 186.846 136.798 186.03 136.186C185.214 135.574 184.806 134.741 184.806 133.687C184.806 132.973 184.999 132.372 185.384 131.885C185.781 131.386 186.353 131.012 187.101 130.763C186.489 130.525 186.024 130.185 185.707 129.743C185.39 129.29 185.231 128.757 185.231 128.145C185.231 127.182 185.605 126.417 186.353 125.85C187.112 125.283 188.127 125 189.396 125C190.235 125 190.966 125.13 191.589 125.391C192.224 125.64 192.717 126.003 193.068 126.479C193.419 126.955 193.595 127.51 193.595 128.145C193.595 128.757 193.431 129.29 193.102 129.743C192.773 130.185 192.303 130.525 191.691 130.763ZM186.455 128.179C186.455 128.836 186.716 129.358 187.237 129.743C187.758 130.128 188.478 130.321 189.396 130.321C190.314 130.321 191.034 130.128 191.555 129.743C192.088 129.358 192.354 128.842 192.354 128.196C192.354 127.527 192.082 127 191.538 126.615C191.005 126.23 190.291 126.037 189.396 126.037C188.489 126.037 187.77 126.23 187.237 126.615C186.716 127 186.455 127.522 186.455 128.179ZM189.396 136.067C190.45 136.067 191.272 135.852 191.861 135.421C192.462 134.99 192.762 134.407 192.762 133.67C192.762 132.933 192.462 132.355 191.861 131.936C191.272 131.505 190.45 131.29 189.396 131.29C188.353 131.29 187.532 131.505 186.931 131.936C186.342 132.355 186.047 132.933 186.047 133.67C186.047 134.418 186.342 135.007 186.931 135.438C187.52 135.857 188.342 136.067 189.396 136.067Z" fill="#4A535C"/>
<path d="M182.704 168.914V170.002H174.357V169.135L179.304 164.29C179.928 163.678 180.347 163.151 180.562 162.709C180.789 162.256 180.902 161.802 180.902 161.349C180.902 160.646 180.659 160.102 180.171 159.717C179.695 159.32 179.01 159.122 178.114 159.122C176.72 159.122 175.638 159.564 174.867 160.448L174 159.7C174.465 159.156 175.054 158.737 175.768 158.442C176.494 158.147 177.31 158 178.216 158C179.429 158 180.387 158.289 181.089 158.867C181.803 159.434 182.16 160.216 182.16 161.213C182.16 161.825 182.024 162.414 181.752 162.981C181.48 163.548 180.965 164.199 180.205 164.936L176.159 168.914H182.704ZM187.369 162.981C189.091 162.981 190.344 163.293 191.126 163.916C191.919 164.528 192.316 165.389 192.316 166.5C192.316 167.191 192.151 167.809 191.823 168.353C191.505 168.897 191.024 169.328 190.378 169.645C189.732 169.951 188.938 170.104 187.998 170.104C187.148 170.104 186.337 169.968 185.567 169.696C184.807 169.413 184.195 169.039 183.731 168.574L184.326 167.605C184.722 168.013 185.244 168.347 185.89 168.608C186.536 168.857 187.233 168.982 187.981 168.982C188.967 168.982 189.726 168.761 190.259 168.319C190.803 167.877 191.075 167.288 191.075 166.551C191.075 165.735 190.769 165.117 190.157 164.698C189.556 164.279 188.536 164.069 187.097 164.069H184.564L185.176 158.102H191.687V159.19H186.247L185.839 162.981H187.369Z" fill="#4A535C"/>
<path d="M217.305 50.2739C218.427 50.6139 218.988 51.3392 218.988 52.4499C218.988 53.2659 218.682 53.8949 218.07 54.3369C217.458 54.7789 216.552 54.9999 215.35 54.9999H210.726V45.9219H215.163C216.274 45.9219 217.141 46.1259 217.764 46.5339C218.388 46.9419 218.699 47.5199 218.699 48.2679C218.699 48.7326 218.575 49.1349 218.325 49.4749C218.087 49.8149 217.747 50.0812 217.305 50.2739ZM212.749 49.7129H214.976C216.076 49.7129 216.625 49.3332 216.625 48.5739C216.625 47.8372 216.076 47.4689 214.976 47.4689H212.749V49.7129ZM215.18 53.4529C216.348 53.4529 216.931 53.0732 216.931 52.3139C216.931 51.9172 216.795 51.6226 216.523 51.4299C216.251 51.2259 215.826 51.1239 215.248 51.1239H212.749V53.4529H215.18ZM225.383 55.1189C224.442 55.1189 223.598 54.9206 222.85 54.5239C222.102 54.1272 221.518 53.5776 221.099 52.8749C220.679 52.1609 220.47 51.3562 220.47 50.4609C220.47 49.5656 220.679 48.7666 221.099 48.0639C221.518 47.3612 222.096 46.8116 222.833 46.4149C223.581 46.0182 224.431 45.8199 225.383 45.8199C226.278 45.8199 227.06 46.0012 227.729 46.3639C228.409 46.7266 228.919 47.2479 229.259 47.9279L227.627 48.8799C227.366 48.4606 227.037 48.1489 226.641 47.9449C226.255 47.7296 225.83 47.6219 225.366 47.6219C224.572 47.6219 223.915 47.8826 223.394 48.4039C222.872 48.9139 222.612 49.5996 222.612 50.4609C222.612 51.3222 222.867 52.0136 223.377 52.5349C223.898 53.0449 224.561 53.2999 225.366 53.2999C225.83 53.2999 226.255 53.1979 226.641 52.9939C227.037 52.7786 227.366 52.4612 227.627 52.0419L229.259 52.9939C228.907 53.6739 228.392 54.2009 227.712 54.5749C227.043 54.9376 226.267 55.1189 225.383 55.1189Z" fill="#4A535C"/>
<path d="M217.28 98.102V110.002H216.056V99.19H213.251V98.102H217.28ZM228.25 108.914V110.002H219.903V109.135L224.85 104.29C225.474 103.678 225.893 103.151 226.108 102.709C226.335 102.256 226.448 101.802 226.448 101.349C226.448 100.646 226.205 100.102 225.717 99.717C225.241 99.32 224.556 99.122 223.66 99.122C222.266 99.122 221.184 99.564 220.413 100.448L219.546 99.7C220.011 99.156 220.6 98.737 221.314 98.442C222.04 98.147 222.856 98 223.762 98C224.975 98 225.933 98.289 226.635 98.867C227.349 99.434 227.706 100.216 227.706 101.213C227.706 101.825 227.57 102.414 227.298 102.981C227.026 103.548 226.511 104.199 225.751 104.936L221.705 108.914H228.25Z" fill="#4A535C"/>
<path d="M216.135 125.102V137.002H214.911V126.19H212.106V125.102H216.135ZM222.686 125C224.261 125 225.468 125.521 226.307 126.564C227.145 127.595 227.565 129.057 227.565 130.95C227.565 132.276 227.338 133.398 226.885 134.316C226.431 135.234 225.797 135.931 224.981 136.407C224.165 136.872 223.213 137.104 222.125 137.104C220.946 137.104 220.005 136.889 219.303 136.458L219.796 135.472C220.362 135.846 221.133 136.033 222.108 136.033C223.422 136.033 224.454 135.619 225.202 134.792C225.95 133.953 226.324 132.741 226.324 131.154C226.324 130.859 226.307 130.536 226.273 130.185C225.978 130.831 225.508 131.335 224.862 131.698C224.216 132.049 223.473 132.225 222.635 132.225C221.853 132.225 221.156 132.078 220.544 131.783C219.943 131.488 219.473 131.075 219.133 130.542C218.793 129.998 218.623 129.369 218.623 128.655C218.623 127.93 218.798 127.289 219.15 126.734C219.501 126.179 219.983 125.754 220.595 125.459C221.218 125.153 221.915 125 222.686 125ZM222.822 131.188C223.422 131.188 223.949 131.075 224.403 130.848C224.867 130.621 225.23 130.31 225.491 129.913C225.751 129.516 225.882 129.074 225.882 128.587C225.882 128.134 225.757 127.714 225.508 127.329C225.27 126.944 224.913 126.632 224.437 126.394C223.961 126.156 223.394 126.037 222.737 126.037C221.875 126.037 221.173 126.275 220.629 126.751C220.096 127.216 219.83 127.839 219.83 128.621C219.83 129.403 220.096 130.026 220.629 130.491C221.173 130.956 221.904 131.188 222.822 131.188Z" fill="#4A535C"/>
<path d="M217.372 168.914V170.002H209.025V169.135L213.972 164.29C214.596 163.678 215.015 163.151 215.23 162.709C215.457 162.256 215.57 161.802 215.57 161.349C215.57 160.646 215.327 160.102 214.839 159.717C214.363 159.32 213.678 159.122 212.782 159.122C211.388 159.122 210.306 159.564 209.535 160.448L208.668 159.7C209.133 159.156 209.722 158.737 210.436 158.442C211.162 158.147 211.978 158 212.884 158C214.097 158 215.055 158.289 215.757 158.867C216.471 159.434 216.828 160.216 216.828 161.213C216.828 161.825 216.692 162.414 216.42 162.981C216.148 163.548 215.633 164.199 214.873 164.936L210.827 168.914H217.372ZM223.772 162.879C224.554 162.879 225.245 163.026 225.846 163.321C226.458 163.616 226.934 164.035 227.274 164.579C227.614 165.112 227.784 165.735 227.784 166.449C227.784 167.174 227.608 167.815 227.257 168.37C226.906 168.925 226.418 169.356 225.795 169.662C225.183 169.957 224.492 170.104 223.721 170.104C222.146 170.104 220.939 169.588 220.1 168.557C219.261 167.514 218.842 166.047 218.842 164.154C218.842 162.828 219.069 161.706 219.522 160.788C219.975 159.87 220.61 159.179 221.426 158.714C222.242 158.238 223.194 158 224.282 158C225.461 158 226.401 158.215 227.104 158.646L226.611 159.632C226.044 159.258 225.274 159.071 224.299 159.071C222.984 159.071 221.953 159.49 221.205 160.329C220.457 161.156 220.083 162.363 220.083 163.95C220.083 164.233 220.1 164.556 220.134 164.919C220.429 164.273 220.899 163.774 221.545 163.423C222.191 163.06 222.933 162.879 223.772 162.879ZM223.67 169.067C224.531 169.067 225.228 168.835 225.761 168.37C226.305 167.894 226.577 167.265 226.577 166.483C226.577 165.701 226.305 165.078 225.761 164.613C225.228 164.148 224.503 163.916 223.585 163.916C222.984 163.916 222.452 164.029 221.987 164.256C221.534 164.483 221.177 164.794 220.916 165.191C220.655 165.588 220.525 166.03 220.525 166.517C220.525 166.97 220.644 167.39 220.882 167.775C221.131 168.16 221.494 168.472 221.97 168.71C222.446 168.948 223.013 169.067 223.67 169.067Z" fill="#4A535C"/>
<path d="M221.159 74.879C222.881 74.879 224.134 75.1907 224.916 75.814C225.709 76.426 226.106 77.2873 226.106 78.398C226.106 79.0893 225.941 79.707 225.613 80.251C225.295 80.795 224.814 81.2257 224.168 81.543C223.522 81.849 222.728 82.002 221.788 82.002C220.938 82.002 220.127 81.866 219.357 81.594C218.597 81.3107 217.985 80.9367 217.521 80.472L218.116 79.503C218.512 79.911 219.034 80.2453 219.68 80.506C220.326 80.7553 221.023 80.88 221.771 80.88C222.757 80.88 223.516 80.659 224.049 80.217C224.593 79.775 224.865 79.1857 224.865 78.449C224.865 77.633 224.559 77.0153 223.947 76.596C223.346 76.1767 222.326 75.967 220.887 75.967H218.354L218.966 70H225.477V71.088H220.037L219.629 74.879H221.159Z" fill="#4A535C"/>
<path d="M186.733 28.4V30H174.458V28.725L181.733 21.6C182.65 20.7 183.267 19.925 183.583 19.275C183.917 18.6083 184.083 17.9417 184.083 17.275C184.083 16.2417 183.725 15.4417 183.008 14.875C182.308 14.2917 181.3 14 179.983 14C177.933 14 176.342 14.65 175.208 15.95L173.933 14.85C174.617 14.05 175.483 13.4333 176.533 13C177.6 12.5667 178.8 12.35 180.133 12.35C181.917 12.35 183.325 12.775 184.358 13.625C185.408 14.4583 185.933 15.6083 185.933 17.075C185.933 17.975 185.733 18.8417 185.333 19.675C184.933 20.5083 184.175 21.4667 183.058 22.55L177.108 28.4H186.733ZM195.87 30.15C194.52 30.15 193.311 29.7917 192.245 29.075C191.195 28.3583 190.37 27.3333 189.77 26C189.186 24.65 188.895 23.0667 188.895 21.25C188.895 19.4333 189.186 17.8583 189.77 16.525C190.37 15.175 191.195 14.1417 192.245 13.425C193.311 12.7083 194.52 12.35 195.87 12.35C197.22 12.35 198.42 12.7083 199.47 13.425C200.536 14.1417 201.37 15.175 201.97 16.525C202.57 17.8583 202.87 19.4333 202.87 21.25C202.87 23.0667 202.57 24.65 201.97 26C201.37 27.3333 200.536 28.3583 199.47 29.075C198.42 29.7917 197.22 30.15 195.87 30.15ZM195.87 28.5C196.886 28.5 197.778 28.2167 198.545 27.65C199.328 27.0833 199.936 26.2583 200.37 25.175C200.803 24.0917 201.02 22.7833 201.02 21.25C201.02 19.7167 200.803 18.4083 200.37 17.325C199.936 16.2417 199.328 15.4167 198.545 14.85C197.778 14.2833 196.886 14 195.87 14C194.853 14 193.953 14.2833 193.17 14.85C192.403 15.4167 191.803 16.2417 191.37 17.325C190.936 18.4083 190.72 19.7167 190.72 21.25C190.72 22.7833 190.936 24.0917 191.37 25.175C191.803 26.2583 192.403 27.0833 193.17 27.65C193.953 28.2167 194.853 28.5 195.87 28.5ZM217.349 28.4V30H205.074V28.725L212.349 21.6C213.265 20.7 213.882 19.925 214.199 19.275C214.532 18.6083 214.699 17.9417 214.699 17.275C214.699 16.2417 214.34 15.4417 213.624 14.875C212.924 14.2917 211.915 14 210.599 14C208.549 14 206.957 14.65 205.824 15.95L204.549 14.85C205.232 14.05 206.099 13.4333 207.149 13C208.215 12.5667 209.415 12.35 210.749 12.35C212.532 12.35 213.94 12.775 214.974 13.625C216.024 14.4583 216.549 15.6083 216.549 17.075C216.549 17.975 216.349 18.8417 215.949 19.675C215.549 20.5083 214.79 21.4667 213.674 22.55L207.724 28.4H217.349ZM231.558 28.4V30H219.283V28.725L226.558 21.6C227.474 20.7 228.091 19.925 228.408 19.275C228.741 18.6083 228.908 17.9417 228.908 17.275C228.908 16.2417 228.549 15.4417 227.833 14.875C227.133 14.2917 226.124 14 224.808 14C222.758 14 221.166 14.65 220.033 15.95L218.758 14.85C219.441 14.05 220.308 13.4333 221.358 13C222.424 12.5667 223.624 12.35 224.958 12.35C226.741 12.35 228.149 12.775 229.183 13.625C230.233 14.4583 230.758 15.6083 230.758 17.075C230.758 17.975 230.558 18.8417 230.158 19.675C229.758 20.5083 228.999 21.4667 227.883 22.55L221.933 28.4H231.558Z" fill="#4A535C" fill-opacity="0.3"/>
<path d="M41.2559 30C40.9573 30 40.6959 29.8973 40.4719 29.692C40.2479 29.4867 40.1359 29.2253 40.1359 28.908V9.224C40.1359 8.90667 40.2479 8.64533 40.4719 8.44C40.6959 8.23467 40.9573 8.132 41.2559 8.132C41.5733 8.132 41.8253 8.23467 42.0119 8.44C42.2173 8.64533 42.3199 8.90667 42.3199 9.224V26.416L56.2919 8.524C56.4973 8.26267 56.7773 8.132 57.1319 8.132C57.4493 8.132 57.7106 8.23467 57.9159 8.44C58.1213 8.64533 58.2239 8.90667 58.2239 9.224V28.908C58.2239 29.2253 58.1213 29.4867 57.9159 29.692C57.7106 29.8973 57.4493 30 57.1319 30C56.8146 30 56.5533 29.8973 56.3479 29.692C56.1426 29.4867 56.0399 29.2253 56.0399 28.908V11.744L42.0679 29.636C41.9746 29.748 41.8533 29.8413 41.7039 29.916C41.5546 29.972 41.4053 30 41.2559 30ZM64.6276 30C64.2916 30 64.021 29.9067 63.8156 29.72C63.629 29.5147 63.5356 29.2533 63.5356 28.936V15.776C63.5356 15.44 63.629 15.1787 63.8156 14.992C64.021 14.7867 64.2916 14.684 64.6276 14.684C64.945 14.684 65.197 14.7867 65.3836 14.992C65.589 15.1787 65.6916 15.44 65.6916 15.776V28.936C65.6916 29.2533 65.589 29.5147 65.3836 29.72C65.197 29.9067 64.945 30 64.6276 30ZM65.3276 23.28C65.0476 23.28 64.8143 23.196 64.6276 23.028C64.441 22.8413 64.3476 22.5987 64.3476 22.3C64.3476 22.0013 64.441 21.768 64.6276 21.6C64.8143 21.4133 65.0476 21.32 65.3276 21.32H69.3876C69.6863 21.32 69.9196 21.4133 70.0876 21.6C70.2743 21.768 70.3676 22.0013 70.3676 22.3C70.3676 22.5987 70.2743 22.8413 70.0876 23.028C69.9196 23.196 69.6863 23.28 69.3876 23.28H65.3276ZM76.5836 30.14C75.0716 30.14 73.7276 29.804 72.5516 29.132C71.3756 28.46 70.4516 27.536 69.7796 26.36C69.1076 25.184 68.7716 23.8493 68.7716 22.356C68.7716 20.844 69.1076 19.5 69.7796 18.324C70.4516 17.148 71.3756 16.224 72.5516 15.552C73.7276 14.88 75.0716 14.544 76.5836 14.544C78.0583 14.544 79.3743 14.88 80.5316 15.552C81.7076 16.224 82.6316 17.148 83.3036 18.324C83.9943 19.5 84.3396 20.844 84.3396 22.356C84.3396 23.8493 84.0036 25.184 83.3316 26.36C82.6596 27.536 81.7356 28.46 80.5596 29.132C79.3836 29.804 78.0583 30.14 76.5836 30.14ZM76.5836 28.18C77.6663 28.18 78.6276 27.928 79.4676 27.424C80.3263 26.92 80.9983 26.2293 81.4836 25.352C81.969 24.4747 82.2116 23.476 82.2116 22.356C82.2116 21.236 81.969 20.2373 81.4836 19.36C80.9983 18.464 80.3263 17.764 79.4676 17.26C78.6276 16.756 77.6663 16.504 76.5836 16.504C75.4823 16.504 74.5023 16.756 73.6436 17.26C72.8036 17.764 72.1316 18.464 71.6276 19.36C71.1423 20.2373 70.8996 21.236 70.8996 22.356C70.8996 23.476 71.1423 24.4747 71.6276 25.352C72.1316 26.2293 72.8036 26.92 73.6436 27.424C74.5023 27.928 75.4823 28.18 76.5836 28.18ZM101.659 30C101.342 30 101.08 29.9067 100.875 29.72C100.67 29.5147 100.567 29.244 100.567 28.908V15.776C100.567 15.44 100.67 15.1787 100.875 14.992C101.08 14.7867 101.342 14.684 101.659 14.684C101.976 14.684 102.228 14.7867 102.415 14.992C102.602 15.1787 102.695 15.44 102.695 15.776V28.908C102.695 29.244 102.602 29.5147 102.415 29.72C102.228 29.9067 101.976 30 101.659 30ZM89.6192 30C89.3018 30 89.0405 29.9067 88.8352 29.72C88.6485 29.5147 88.5552 29.244 88.5552 28.908V15.776C88.5552 15.44 88.6485 15.1787 88.8352 14.992C89.0405 14.7867 89.3018 14.684 89.6192 14.684C89.9365 14.684 90.1885 14.7867 90.3752 14.992C90.5805 15.1787 90.6832 15.44 90.6832 15.776V28.908C90.6832 29.244 90.5805 29.5147 90.3752 29.72C90.1885 29.9067 89.9365 30 89.6192 30ZM90.3192 23.252V21.32H101.323V23.252H90.3192ZM114.219 30.28C112.931 30.28 111.802 30.0373 110.831 29.552C109.86 29.0667 109.095 28.404 108.535 27.564C107.994 26.7053 107.723 25.7067 107.723 24.568V15.748C107.742 15.4307 107.854 15.1787 108.059 14.992C108.264 14.7867 108.516 14.684 108.815 14.684C109.114 14.684 109.366 14.7867 109.571 14.992C109.776 15.1973 109.879 15.4587 109.879 15.776V19.752H114.443C115.656 19.752 116.72 19.9667 117.635 20.396C118.568 20.8253 119.287 21.432 119.791 22.216C120.314 23 120.575 23.9053 120.575 24.932C120.575 25.9587 120.304 26.8827 119.763 27.704C119.24 28.5067 118.503 29.1413 117.551 29.608C116.599 30.056 115.488 30.28 114.219 30.28ZM114.219 28.292C115.432 28.292 116.44 28.012 117.243 27.452C118.046 26.892 118.447 26.052 118.447 24.932C118.447 23.8867 118.092 23.0747 117.383 22.496C116.674 21.9173 115.694 21.628 114.443 21.628H109.879V24.568C109.879 25.2773 110.056 25.9213 110.411 26.5C110.784 27.06 111.288 27.4987 111.923 27.816C112.576 28.1333 113.342 28.292 114.219 28.292Z" fill="#4A535C"/>
<path d="M178.434 114.061C175.682 114.307 173.149 115.52 171.197 117.526C169.591 119.185 168.598 121.111 168.125 123.483C167.958 124.336 167.958 126.762 168.125 127.615C168.478 129.387 169.178 131.02 170.177 132.399C170.537 132.892 186.863 149.305 186.997 149.305C187.103 149.305 203.089 133.266 203.469 132.779C204.949 130.873 205.755 128.821 205.961 126.395C206.188 123.803 205.408 121.004 203.836 118.785C203.263 117.979 202.037 116.746 201.224 116.173C197.745 113.708 193.2 113.328 189.395 115.18C188.716 115.514 187.869 116.033 187.396 116.413C187.25 116.533 187.096 116.646 187.057 116.673C187.017 116.693 186.67 116.493 186.29 116.22C185.477 115.634 183.991 114.874 183.112 114.587C182.285 114.321 181.359 114.141 180.433 114.054C179.58 113.981 179.34 113.981 178.434 114.061ZM181.512 115.913C183.312 116.3 184.944 117.166 186.317 118.452L186.97 119.072L187.15 118.912C187.25 118.825 187.563 118.539 187.849 118.272C189.016 117.193 190.375 116.46 192.008 116.027C193.833 115.54 196.039 115.64 197.825 116.287C202.59 118.012 205.255 123.09 203.976 128.015C203.642 129.301 203.096 130.434 202.316 131.46C202.057 131.806 199.144 134.765 194.433 139.476L186.963 146.94L179.493 139.476C174.695 134.678 171.877 131.813 171.603 131.453C170.784 130.367 170.144 128.928 169.831 127.448C169.638 126.522 169.618 124.729 169.791 123.817C170.077 122.337 170.764 120.765 171.597 119.652C172.49 118.459 173.876 117.319 175.195 116.693C176.108 116.253 177.361 115.887 178.367 115.76C178.967 115.687 180.879 115.78 181.512 115.913Z" fill="black" fill-opacity="0.8"/>
</g>
<defs>
<clipPath id="clip0_403_58">
<rect width="233" height="234" fill="white"/>
</clipPath>
</defs>
</svg>
